<svg width="512" height="512" viewBox="0 0 512 512" xmlns="http://www.w3.org/2000/svg">
  <!-- Outer Border -->
  <rect x="20" y="20" width="472" height="472" rx="25" 
        fill="#2e1f14" stroke="#2e1f14" stroke-width="4"/>
  
  <!-- Inner Background -->
  <rect x="40" y="40" width="432" height="432" rx="20" fill="#3b2a1f"/>

  <!-- Grass Section -->
  <rect x="50" y="50" width="412" height="160" rx="10" fill="#5cc45c"/>
  <rect x="50" y="130" width="412" height="80" fill="#46a84b"/>

  <!-- Hills Curve -->
  <path d="M50 210 
           C120 180, 160 180, 210 210
           C260 240, 320 240, 380 210
           C420 190, 450 190, 462 210
           L462 240 L50 240 Z"
        fill="#3a2517"/>

  <!-- Soil Section -->
  <rect x="50" y="240" width="412" height="220" fill="#b67640"/>
  <rect x="50" y="330" width="412" height="120" fill="#a16536"/>

  <!-- Rocks -->
  <ellipse cx="140" cy="340" rx="35" ry="25" fill="#e4c281"/>
  <ellipse cx="100" cy="390" rx="18" ry="14" fill="#f0d49a"/>
  <ellipse cx="350" cy="380" rx="40" ry="30" fill="#915b32"/>
  <circle cx="420" cy="340" r="15" fill="#7a4726"/>
</svg>
